<?xml version="1.0" encoding="UTF-8"?>
<svg id="Layer_1" data-name="Layer 1" xmlns="http://www.w3.org/2000/svg" viewBox="0 0 98 98">
  <path d="m92.159,48.78c.337,24.54-21.421,45.759-46.219,43.448-18.187-1.021-33.995-14.784-38.231-32.361C.749,36.213,16.674,9.804,41,5.279c26.608-5.638,51.67,16.688,51.158,43.501Zm-57.684-9.994c-5.568,7.165-4.31,18.019,2.048,24.275,13.212,13.674,35.17,3.279,36.163-14.825.792-9.876-5.425-19.754-14.842-23.011-.201-.074-.435-.265-.654-.066-.32.291-.678.25-1.044.17-2.747-.702-5.414-1.127-8.3-1.076.61-1.5-2.85-.929-2.502.215-4.248.705-8.162,2.165-11.736,4.509-.163.107-.326.227-.538.162-1.17-.36-2.94,1.184-3.178,2.239-.096.428-.322.731-.607,1.027-1.311,1.362-2.477,2.84-3.498,4.433-5.465,8.099-5.072,17.701-.597,26.138-1.097-1.656-1.929-3.439-2.616-5.281,3.828,15.755,22.044,25.395,37.082,18.648-10.831,3.237-23.248-.957-29.676-10.433-5.402-7.568-6.726-17.353-2.448-25.772-3.591,8.366-2.006,18.367,3.944,25.269.071-.239-.069-.315-.143-.413-3.92-5.332-5.969-12.199-4.494-18.75,1.608-6.972,5.671-12.094,12.087-15.262,3.686-1.801,8.446-2.846,12.405-1.635-3.867-.287-7.543.461-10.979,2.342,1.796-.646,3.61-1.215,5.543-1.226-4.202.777-7.617,3.382-8.686,4.864,1.617-1.019,3.155-1.921,4.861-2.493-4.223,2.494-7.415,5.933-9.571,10.343.523-1.527,1.245-2.953,1.975-4.392Zm13.458,41.164c-16.97-1.182-29.578-17.857-27.968-34.473-5.719,17.945,9.376,36.107,27.968,34.473Zm-12.256-53.819c18.908-10.451,41.729,3.857,38.598,25.675,4.974-17.817-13.722-34.78-31.168-30.232-.462.104-.943.388-1.361-.135-.092-.115-.293-.06-.449-.037-1.934.45-3.524,1.79-5.273,2.675-3.507,1.924-6.482,4.474-8.949,7.622-.081.104-.223.195-.145.406,3.159-3.688,6.9-6.52,11.377-8.347-.883.779-1.825,1.483-2.629,2.372Zm42.204,13.764c3.509,14.665-6.11,30.292-20.865,33.58,4.231-.436,7.881-2.302,11.334-4.615.745.913,1.459.214,2.077-.421,7.253-7.382,10.701-18.537,7.454-28.543Zm-27.508-23.849c-12.29-.914-24.904,5.99-29.984,17.352,6.264-10.386,18.086-16.455,29.984-17.352Zm-22.191,34.087c-.56,14.601,13.154,25.32,27.231,21.584-13.657,2.206-26.844-7.413-27.231-21.584Zm21.549-32.589c7.225.267,13.789,2.417,19.582,6.803-5.606-4.939-12.083-7.364-19.582-6.803Zm30.596,17.284c-.107-.906-.595-1.732-1.446-2.332-.218-.154-.482-.263-.758-.073-1.31.967,2.129,5.267,2.204,2.405Zm1.183,15.337c.406-3.781.317-7.51-1.046-11.208-.165.146-.247.189-.242.219.588,3.644,1.537,7.245,1.288,10.989Zm-30.685,24.571c.658-.009,1.061-.294,1.103-.744.085-.796-.754-.871-1.329-.902-1.522.068-1.053,1.666.227,1.647Zm30.225-47.679c-.112-.674-.443-1.25-1.05-1.622-.292-.179-.552-.084-.509.32-.106.616,1.406,2.707,1.558,1.302ZM11.433,46.692c-.537.44-.753,1.492-.443,2.018.16.272.334.296.549.071.44-.459.398-1.607-.106-2.088Zm16.805.421c.029.192-.026.585.35.661.672.092.825-1.013.734-1.5-.27-1.061-1.191-.045-1.085.839Zm-10.132,17.952c.02-.558-.467-1.213-.863-1.219-.327-.005-.431.189-.438.483-.059.804,1.089,1.828,1.301.736Zm-9.306-8.67c.084.351.089.814.56.826.444.011.527-.406.518-.762.045-1.066-1.053-1.222-1.078-.063Zm53.359,24.377c.739.026,1.639-.967.604-1.142-.432-.024-1.08.398-1.087.713-.006.313.178.448.483.429ZM13.55,42.173c.033.161-.071.485.258.558.346.077.46-.243.547-.482.129-.356.272-.737.01-1.103-.462-.411-.88.581-.815,1.028Zm58.901,14.88c-.975,1.382-1.669,2.936-2.72,4.265,1.115-1.29,2.151-2.63,2.72-4.265ZM32.192,14.712c-.594-.152-1.157.073-1.555.622.576.218,1.226-.042,1.555-.622Zm32.806,73.436c-.767-.133-1.258.075-1.447.563.548.046,1.019-.073,1.447-.563Zm12.719-23.935c-.603.181-.861.48-.8,1.059.572-.107.689-.511.8-1.059Zm7.148-1.204c.567-.314.686-.587.477-1.039-.385.224-.601.518-.477,1.039ZM49.103,13.974c-.166.019-.404-.038-.419.251-.014.288.231.284.408.287.177.003.415.02.427-.267.013-.3-.206-.269-.417-.272Zm9.573,67.201c-.494-.002-.996.004-1.471.395.607.118,1.054-.064,1.471-.395ZM39.432,13.853c-.161-.011-.35.079-.364.301-.023.426.772.364.748-.058.002-.211-.158-.237-.384-.243Zm-18.222,9.378c-.376.06-.6.198-.601.551,0,.122.12.239.236.195.296-.112.461-.325.365-.747Z"/>
  <path d="m36.258,47.246c.058-7.86,6.298-14.087,14.053-14.025,7.557.061,13.734,6.583,13.643,14.476-.085,7.299-6.139,13.835-14.181,13.698-7.416-.127-13.571-6.508-13.514-14.149Z"/>
  <path d="m38.042,29.866c5.961-4.286,14.388-4.184,20.493-.305.37.323.049.875-.412.579-6.666-3.282-13.398-3.95-20.081-.274Z"/>
  <path d="m69.044,50.406c-.442,4.746-3.668,10.974-10.648,13.623,5.435-3.066,9.266-7.386,10.648-13.623Z"/>
  <path d="m35.199,57.564c3.112,4.13,7.147,6.939,12.21,8.459-3.756.12-10.43-4.523-12.21-8.459Z"/>
  <path d="m65.993,52.782c1.274-3.901,1.193-7.801.012-11.703,1.741,3.897,1.719,7.799-.012,11.703Z"/>
  <path d="m60.304,31.563c2.201,1.189,3.901,2.915,5.254,5.005-1.505-1.947-3.693-3.133-5.254-5.005Z"/>
</svg>
