<?xml version="1.0" encoding="utf-8"?>
<!-- Generator: Adobe Illustrator 25.0.0, SVG Export Plug-In . SVG Version: 6.00 Build 0)  -->
<svg version="1.1" id="Layer_1" xmlns="http://www.w3.org/2000/svg" xmlns:xlink="http://www.w3.org/1999/xlink" x="0px" y="0px"
	 viewBox="0 0 491.5 491.5" style="enable-background:new 0 0 491.5 491.5;" xml:space="preserve">
<g>
	<path d="M361.7,185.9c5.4-6.9,11.2-16.2,8-21.8c-2-3.5-9-4.9-19.4-4.1c-8.1,0.7-15.4-2-21.1-7.9c-39.6-40.6-101.5-49.2-150.7-20.8
		l0,0c-49.2,28.4-72.8,86.3-57.4,140.9c2.2,7.8,0.9,15.5-3.7,22.2c-5.9,8.5-8.2,15.3-6.2,18.8c7.5,12.9,53.1-3.4,68.8-9.5
		c32.1-12.5,65.7-29.9,76.9-36.4C279,254.7,339.1,214.6,361.7,185.9z"/>
	<polygon points="178.5,131.4 178.5,131.4 178.5,131.4 	"/>
	<path d="M379.2,245.1c5.5,50.7-20.4,97.1-64.4,122.5c-20.6,11.9-43.4,18.1-66.3,18.1v0c-25.9,0-50.8-8.1-71.9-23.6
		c-18.4,7-36.3,12.7-53.2,17c58,53.6,143.8,62.7,211.7,23.5c68.4-39.5,102.7-118.8,85.5-195.1C408.4,220,394.5,232.6,379.2,245.1z"
		/>
	<path d="M310,359.3c40-23.1,62.5-63.5,60.1-106.9c-53.5,42.1-119.6,80.3-182.8,105.5C223.8,381.6,270.1,382.4,310,359.3z"/>
	<path d="M416.2,198.2c30.7-32.1,44.9-59.3,38.2-70.8c-5.4-9.4-26.3-10.9-57.2-4.2l0,0c-9,2-17.6-0.5-24.3-6.9
		c-58.6-56.7-148.6-67.3-218.7-26.9C83.8,130,48.5,213.4,68.2,292.2c2.2,9,0.1,17.7-6.2,24.5c-21.3,23.4-30.4,42.3-25,51.6
		c5.2,9,27.8,14.4,75.4,3.5l0,0l5-1.2c53.5-13.1,111.9-39.6,160.1-67.5C325.9,275.3,378.1,238,416.2,198.2z M124.8,327.6
		c-11,0-18.2-3.2-21.9-9.5c-4.1-7.1-1.9-16.9,6.6-29.1c3-4.3,3.8-9.1,2.4-14.1c-16.6-58.8,8.8-121.2,61.8-151.8l0,0
		c53-30.6,119.8-21.4,162.4,22.4c3.7,3.8,8.2,5.5,13.4,5c14.8-1.3,24.4,1.7,28.5,8.8c8.2,14.3-6.5,36.2-45,67.1
		c-27.3,21.9-59.8,42.6-71.2,49.2C237.7,289.6,161.3,327.6,124.8,327.6z"/>
</g>
</svg>
