<?xml version="1.0" encoding="iso-8859-1"?>
<!-- Generator: Adobe Illustrator 23.0.2, SVG Export Plug-In . SVG Version: 6.00 Build 0)  -->
<svg version="1.1" id="Layer_1" xmlns="http://www.w3.org/2000/svg" xmlns:xlink="http://www.w3.org/1999/xlink" x="0px" y="0px"
	 viewBox="0 0 492 492" style="enable-background:new 0 0 492 492;" xml:space="preserve">
<linearGradient id="SVGID_1_" gradientUnits="userSpaceOnUse" x1="82.2414" y1="103.9279" x2="388.6628" y2="410.3494">
	<stop  offset="0" style="stop-color:#00DBDE"/>
	<stop  offset="1" style="stop-color:#FC00FF"/>
</linearGradient>
<path style="fill:url(#SVGID_1_);" d="M248.779,344.978c-8.543,0-17.141-1.124-25.614-3.394
	c-52.383-14.036-83.581-68.072-69.545-120.456c14.036-52.383,68.071-83.581,120.455-69.544c25.376,6.799,46.584,23.073,59.72,45.824
	c13.135,22.75,16.624,49.255,9.825,74.63c-6.8,25.376-23.074,46.585-45.824,59.72C282.642,340.507,265.821,344.978,248.779,344.978z
	 M248.641,158.223c-39.009,0-74.796,26.065-85.361,65.494c-12.608,47.057,15.417,95.599,62.474,108.208
	c22.797,6.11,46.605,2.974,67.043-8.826s35.057-30.853,41.164-53.647c6.108-22.795,2.974-46.604-8.825-67.042
	c-11.8-20.438-30.853-35.057-53.647-41.165C263.858,159.199,256.188,158.223,248.641,158.223z M248.604,313.742
	c-5.738,0-11.563-0.741-17.363-2.295c-35.766-9.584-57.066-46.479-47.483-82.244c4.624-17.258,15.749-31.715,31.326-40.708
	c15.576-8.993,33.658-11.399,50.917-6.775c17.258,4.624,31.715,15.749,40.708,31.326s11.399,33.66,6.775,50.917l0,0
	C305.454,293.929,278.249,313.742,248.604,313.742z M248.657,189.428c-9.909,0-19.716,2.613-28.574,7.728
	c-13.263,7.658-22.734,19.958-26.667,34.636c-8.156,30.44,9.972,61.839,40.412,69.996c30.438,8.156,61.839-9.973,69.995-40.411
	c3.934-14.678,1.882-30.066-5.775-43.33s-19.958-22.734-34.636-26.667C258.537,190.074,253.585,189.428,248.657,189.428z
	 M308.653,262.67h0.01H308.653z M248.611,282.539c-3.072,0-6.191-0.397-9.296-1.229c-19.148-5.132-30.552-24.884-25.422-44.032
	c2.478-9.248,8.432-16.991,16.767-21.803c8.333-4.811,18.016-6.098,27.265-3.619c9.248,2.478,16.991,8.433,21.803,16.767
	s6.097,18.018,3.619,27.265c0,0,0,0-0.001,0C279.047,271.932,264.482,282.539,248.611,282.539z M248.632,220.629
	c-4.5,0-8.951,1.186-12.972,3.507c-6.021,3.477-10.321,9.063-12.107,15.73c-3.704,13.822,4.529,28.081,18.351,31.784
	c13.821,3.704,28.081-4.528,31.783-18.35c1.787-6.668,0.856-13.656-2.619-19.677c-3.477-6.021-9.063-10.321-15.73-12.107
	C253.122,220.923,250.871,220.629,248.632,220.629z M278.517,254.595h0.01H278.517z M300.264,345.923
	c-10.709,0-21.502-1.096-32.342-3.304c-2.706-0.551-4.452-3.191-3.901-5.897c0.551-2.705,3.183-4.452,5.897-3.901
	c49.013,9.98,95.336-3.449,137.688-39.92c31.806-27.39,49.16-58.02,49.331-58.326c1.351-2.409,4.396-3.267,6.807-1.917
	c2.409,1.35,3.268,4.397,1.918,6.806c-0.736,1.313-18.401,32.486-51.531,61.015C379.252,330.515,340.395,345.923,300.264,345.923z
	 M338.792,275.744c-1.432,0-2.852-0.61-3.841-1.795c-1.77-2.12-1.486-5.272,0.633-7.043c35.98-30.047,49.03-74.482,38.786-132.071
	c-7.741-43.518-26.517-78.353-26.705-78.7c-1.32-2.425-0.424-5.462,2.001-6.782c2.429-1.322,5.462-0.424,6.782,2.001
	c0.803,1.474,19.744,36.625,27.768,81.729c4.747,26.688,4.62,51.267-0.377,73.051c-6.308,27.498-20.386,50.526-41.845,68.447
	C341.059,275.363,339.922,275.744,338.792,275.744z M324.078,196.627c-2.335,0-4.423-1.643-4.897-4.02
	c-10.377-51.86-44.316-89.37-100.875-111.488c-42.711-16.703-82.949-17.861-83.35-17.871c-2.76-0.067-4.944-2.358-4.878-5.118
	c0.066-2.761,2.363-4.945,5.115-4.879c1.701,0.04,42.161,1.176,86.482,18.448c26.188,10.205,48.205,23.954,65.443,40.865
	c21.669,21.26,35.756,47.53,41.868,78.081c0.542,2.708-1.214,5.342-3.921,5.884C324.733,196.596,324.402,196.627,324.078,196.627z
	 M31.216,262.509c-0.764,0-1.54-0.176-2.267-0.547c-2.459-1.255-3.437-4.264-2.184-6.723c0.704-1.383,17.623-34.186,50.314-63.565
	c43.659-39.234,94.519-52.963,147.078-39.701c2.678,0.676,4.3,3.394,3.625,6.071c-0.676,2.678-3.396,4.298-6.071,3.625
	c-49.785-12.562-96.122-0.034-137.72,37.239c-31.395,28.13-48.151,60.548-48.317,60.873
	C34.79,261.512,33.035,262.509,31.216,262.509z M147.137,437.129c-1.728,0-3.407-0.896-4.333-2.499
	c-0.765-1.323-18.825-32.897-26.628-75.304c-10.437-56.72,2.97-105.293,38.771-140.47c1.971-1.936,5.135-1.907,7.071,0.062
	c1.936,1.97,1.908,5.135-0.062,7.071c-33.799,33.21-45.893,77.463-35.944,131.527c7.494,40.724,25.271,71.8,25.45,72.109
	c1.382,2.391,0.564,5.449-1.826,6.831C148.846,436.912,147.986,437.129,147.137,437.129z M358.102,438.843
	c-0.075,0-0.15-0.002-0.227-0.005c-1.488-0.066-36.928-1.813-77.403-18.321c-53.956-22.007-90.568-59.992-105.881-109.848
	c-0.811-2.64,0.672-5.437,3.312-6.247c2.641-0.811,5.437,0.672,6.248,3.312c14.607,47.561,48.285,82.391,100.098,103.523
	c38.889,15.862,73.725,17.575,74.072,17.591c2.758,0.123,4.896,2.459,4.772,5.218C362.974,436.748,360.761,438.843,358.102,438.843z
	 M76.467,163.086c-1.912,0-3.835-0.251-5.729-0.758c-5.689-1.524-10.452-5.187-13.411-10.311c-2.959-5.125-3.749-11.08-2.224-16.769
	c3.156-11.777,15.308-18.788,27.08-15.635c11.776,3.156,18.79,15.304,15.635,27.08l0,0c-1.524,5.689-5.187,10.452-10.311,13.411
	C84.089,162.078,80.3,163.086,76.467,163.086z M76.464,128.858c-5.347,0-10.253,3.573-11.701,8.978
	c-0.833,3.109-0.398,6.37,1.225,9.181c1.623,2.812,4.229,4.818,7.339,5.652c3.11,0.833,6.37,0.398,9.181-1.225
	c2.812-1.623,4.819-4.229,5.652-7.338l0,0c1.728-6.451-2.113-13.104-8.563-14.833C78.55,128.992,77.498,128.858,76.464,128.858z
	 M92.989,145.399h0.01H92.989z M232.131,126.325c-0.987,0-1.983-0.291-2.854-0.898c-44.212-30.805-104.073-19.607-104.672-19.491
	c-2.708,0.53-5.335-1.24-5.864-3.949s1.234-5.334,3.943-5.865c2.615-0.512,64.559-12.17,112.31,21.1
	c2.266,1.579,2.823,4.695,1.244,6.961C235.266,125.577,233.711,126.325,232.131,126.325z M82.094,277.043
	c-0.082,0-0.165-0.002-0.248-0.006c-2.758-0.135-4.885-2.479-4.75-5.237c2.514-51.529,57.998-79.849,60.358-81.029
	c2.468-1.237,5.473-0.234,6.708,2.236c1.234,2.469,0.234,5.472-2.234,6.707c-0.632,0.318-52.62,26.98-54.844,72.572
	C86.954,274.962,84.744,277.043,82.094,277.043z M66.168,337.729c-1.912,0-3.835-0.251-5.729-0.759
	c-11.776-3.155-18.791-15.304-15.635-27.08c3.157-11.777,15.31-18.789,27.081-15.635c5.689,1.525,10.452,5.187,13.411,10.312
	c2.959,5.124,3.749,11.08,2.224,16.769c-1.524,5.689-5.186,10.452-10.311,13.411C73.79,336.721,70.001,337.729,66.168,337.729z
	 M66.165,303.501c-5.347,0-10.253,3.573-11.702,8.979c-1.728,6.45,2.114,13.104,8.564,14.832c3.11,0.836,6.371,0.399,9.181-1.225
	c2.812-1.623,4.818-4.229,5.652-7.339l0,0c0.833-3.109,0.398-6.37-1.225-9.181c-1.623-2.812-4.229-4.818-7.338-5.651
	C68.251,303.636,67.199,303.501,66.165,303.501z M346.692,190.645c-0.505,0-1.02-0.077-1.526-0.24
	c-2.63-0.843-4.079-3.658-3.236-6.287c7.684-23.982,2.79-48.693-14.546-73.449c-13.23-18.895-29.096-30.681-29.254-30.797
	c-2.223-1.637-2.701-4.765-1.066-6.989c1.635-2.224,4.761-2.704,6.985-1.07c0.695,0.51,17.174,12.716,31.356,32.879
	c19.091,27.139,24.64,55.66,16.048,82.478C350.773,189.292,348.808,190.645,346.692,190.645z M350.295,306.444
	c-1.866,0-3.656-1.049-4.515-2.844c-1.191-2.491-0.138-5.477,2.354-6.668c58.136-27.799,66.75-73.285,66.83-73.741
	c0.478-2.714,3.069-4.538,5.777-4.068c2.716,0.47,4.54,3.041,4.079,5.758c-0.352,2.065-9.32,50.923-72.372,81.073
	C351.752,306.287,351.018,306.444,350.295,306.444z M359.007,395.161c-22.949,0-59.351-3.064-92.457-19.142
	c-2.483-1.207-3.52-4.198-2.313-6.683c1.206-2.483,4.195-3.52,6.683-2.313c49.65,24.112,109.363,17.132,109.961,17.058
	c2.747-0.338,5.235,1.612,5.572,4.352c0.338,2.74-1.607,5.234-4.348,5.573C381.165,394.122,372.362,395.161,359.007,395.161z
	 M203.29,431.243c-1.223,0-2.448-0.445-3.412-1.346c-2.312-2.159-56.489-53.523-45.9-109.582c0.512-2.714,3.125-4.502,5.841-3.985
	c2.713,0.513,4.498,3.128,3.985,5.841c-9.578,50.71,42.374,99.927,42.9,100.418c2.018,1.886,2.126,5.05,0.241,7.067
	C205.96,430.71,204.626,431.243,203.29,431.243z M96.351,435.956c-1.913,0-3.835-0.251-5.729-0.759
	c-11.776-3.155-18.79-15.303-15.635-27.079c3.156-11.777,15.306-18.789,27.081-15.636c11.776,3.156,18.79,15.305,15.635,27.081l0,0
	c-1.524,5.689-5.187,10.452-10.311,13.41C103.972,434.947,100.183,435.956,96.351,435.956z M96.354,401.729
	c-2.1,0-4.179,0.554-6.057,1.639c-2.812,1.623-4.818,4.229-5.652,7.339c-1.728,6.45,2.114,13.104,8.564,14.832
	c6.451,1.729,13.104-2.112,14.833-8.563l0,0c1.728-6.451-2.114-13.105-8.563-14.833C98.447,401.865,97.397,401.729,96.354,401.729z
	 M112.872,418.27h0.01H112.872z M243.338,463.554c-1.889,0-3.807-0.244-5.716-0.755c-11.777-3.156-18.791-15.305-15.636-27.081
	c3.156-11.775,15.304-18.784,27.08-15.636c11.777,3.156,18.791,15.305,15.636,27.081c0,0,0,0-0.001,0
	C262.058,457.03,253.1,463.554,243.338,463.554z M243.348,429.328c-5.348,0-10.254,3.573-11.702,8.978
	c-1.728,6.451,2.114,13.104,8.564,14.833c6.452,1.729,13.104-2.114,14.832-8.563c1.729-6.451-2.113-13.104-8.563-14.833
	C245.433,429.462,244.382,429.328,243.348,429.328z M259.872,445.869h0.01H259.872z M399.95,380.756
	c-1.912,0-3.835-0.251-5.729-0.759c-5.689-1.524-10.452-5.186-13.411-10.311c-2.959-5.124-3.749-11.08-2.224-16.769
	c1.524-5.689,5.186-10.452,10.311-13.411s11.082-3.747,16.77-2.225c11.776,3.156,18.79,15.305,15.635,27.081c0,0,0,0-0.001,0
	c-1.524,5.689-5.186,10.452-10.311,13.41C407.572,379.747,403.783,380.756,399.95,380.756z M399.954,346.528
	c-2.101,0-4.179,0.554-6.057,1.639c-2.812,1.623-4.818,4.229-5.651,7.339c-0.834,3.109-0.398,6.37,1.225,9.181
	c1.623,2.812,4.229,4.818,7.339,5.651c3.109,0.836,6.369,0.398,9.181-1.225s4.818-4.229,5.651-7.338
	c1.729-6.451-2.112-13.104-8.563-14.833C402.047,346.665,400.998,346.528,399.954,346.528z M416.472,363.069h0.01H416.472z
	 M440.739,211.553c-1.889,0-3.807-0.244-5.717-0.756c-11.776-3.155-18.791-15.303-15.637-27.08
	c3.157-11.776,15.299-18.79,27.081-15.636c11.777,3.156,18.791,15.305,15.636,27.081
	C459.458,205.029,450.501,211.553,440.739,211.553z M440.747,177.327c-5.347,0-10.253,3.573-11.701,8.978
	c-1.729,6.45,2.114,13.104,8.564,14.833c6.445,1.726,13.104-2.113,14.832-8.563c1.729-6.451-2.113-13.104-8.563-14.833
	C442.833,177.461,441.781,177.327,440.747,177.327z M265.539,74.153c-1.89,0-3.808-0.244-5.718-0.756
	c-11.776-3.156-18.791-15.304-15.635-27.08s15.301-18.792,27.081-15.635c11.775,3.155,18.79,15.304,15.636,27.08l0,0
	C284.258,67.629,275.3,74.153,265.539,74.153z M265.547,39.927c-5.347,0-10.253,3.574-11.701,8.978
	c-1.729,6.45,2.113,13.104,8.563,14.833c6.453,1.728,13.104-2.115,14.833-8.563l0,0c1.729-6.451-2.113-13.105-8.563-14.834
	C267.633,40.061,266.582,39.927,265.547,39.927z M282.072,56.469h0.01H282.072z"/>
</svg>
