<?xml version="1.0" encoding="UTF-8"?><svg id="uuid-9dc7a858-b279-4f3b-9dff-7e50df58bcf5" xmlns="http://www.w3.org/2000/svg" xmlns:xlink="http://www.w3.org/1999/xlink" viewBox="0 0 64 64"><defs><style>.uuid-e6e089c4-1a23-451f-9aab-666361d4216f{fill:url(#uuid-2b91426b-0160-4338-b5a8-23a80bc3685b);stroke-width:0px;}</style><linearGradient id="uuid-2b91426b-0160-4338-b5a8-23a80bc3685b" x1="4.69749" y1="32.3877" x2="60.69749" y2="32.3877" gradientUnits="userSpaceOnUse"><stop offset="0" stop-color="#096fe0"/><stop offset=".15843" stop-color="#167ce3"/><stop offset="1" stop-color="#5ec3f6"/></linearGradient></defs><path class="uuid-e6e089c4-1a23-451f-9aab-666361d4216f" d="m17.12728,25.18143c1.71252-4.18969,5.04053-7.51777,9.187-9.21951,2.30206,2.36199-.85975,7.94031-4.29721,9.33797-1.68955.70856-3.32615,1.16249-4.88979-.11846Zm-1.23855,7.27001c.06462,1.45397.3231,2.89723.77544,4.29737,4.30815-.71082,9.25178-3.57577,13.4307-7.76547,4.17891-4.18963,7.01153-9.17632,7.72234-13.50603-2.84015-.92587-6.1123-1.0523-8.99324-.33387-.12924.03227-.25854.06461-.377.09689,1.60478,2.60648.68932,6.70999-2.33715,9.73646-2.72633,2.6599-6.52278,4.17197-9.69335,2.35882-.4424,1.62589-.61249,3.37954-.52773,5.11583Zm1.58321,6.33299c.06462.16152.14002.33388.23698.4954,3.40341.21542,7.78696-.23692,12.50439-1.29239,6.50598-4.13933,13.1346-13.56891,12.74117-19.79606-.96915-.75385-2.00313-1.40011-3.09089-1.90628-.90474,4.65281-3.89887,9.85492-8.23937,14.21691s-9.52104,7.37768-14.15229,8.28242Zm12.06284,9.42408c7.36165,1.49906,15.11662-2.51309,18.29882-9.18722-2.96181,1.41098-6.21442,2.68187-9.59633,3.7482-2.82183,2.48795-5.80525,4.35121-8.70248,5.43903Zm31.05102-24.54574c-.82934-2.95107-6.03145-4.66353-13.51681-4.54507.73238.85084,1.40014,1.77707,1.96015,2.768,3.44653.40928,5.46059,1.54016,5.96683,3.37113,1.33067,7.11304-16.92187,13.22614-24.23323,14.8093-5.48123,1.18573-18.37388,3.37414-20.34549-2.12165-.36612-1.28185-.05374-3.33896,3.30661-6.01006-.04123-1.14651.06416-2.29793.23691-3.40341-6.42987,3.83425-9.9733,8.03473-9.14403,11.00736,3.10843,7.50172,24.09564,4.10604,32.50487,1.2601,7.87635-2.07708,24.91346-10.49008,23.26418-17.13569Zm-36.91011,22.2193c.66776.43084,1.36786.80778,2.10024,1.13088,2.10024-.34459,4.41583-1.2709,6.72071-2.67103-2.99413.71088-5.96677,1.22784-8.82094,1.54016Zm12.90289-10.40416c-.38772.38772-.78622.76465-1.18472,1.14166,2.81105-.85084,5.46059-1.84176,7.83009-2.90802,2.34793-3.65117,3.74807-7.41003,3.99577-10.6627-.62463-1.08775-1.36779-2.08939-2.2187-3.00491-.5708,4.92207-3.67267,10.67348-8.42244,15.43397Zm12.20286-8.87478c-.45234,1.7448-1.15244,3.55421-2.06789,5.36363,1.01242-.56008,1.93866-1.14166,2.75721-1.72323-.08618-1.2494-.3231-2.46646-.68932-3.64039ZM10.67583,17.30828c3.37026-.09328,3.35851-5.00424-.00008-5.09443-3.36102.08407-3.37138,5.00826.00008,5.09443Zm43.36156,27.39985c-3.37023.09329-3.35855,5.00416.00008,5.09437,3.36105-.08409,3.37135-5.0082-.00008-5.09437Zm-31.71878,10.458c-1.86325-1.08775-2.14329-3.25261-2.14329-3.27417-.05453-.60978-1.00897-.62313-1.06625.00005,0,.02152-.28004,2.18637-2.15408,3.27413-.29704.15491-.35185.61384-.10767.84012.58157.59236,2.12172,2.41256,2.26174,3.74807.05369.63576,1.01494.62978,1.06626-.00003.12924-1.33548,1.68018-3.15568,2.26176-3.74804.24394-.22966.19382-.68893-.11846-.84012ZM44.10713,12.87089c.05259.63059,1.02442.63377,1.07704-.00004.12924-1.33547,1.6694-3.15567,2.25098-3.73731.11846-.11846.18308-.29076.16158-.45234-.02156-.16158-.11852-.31232-.26926-.3985-1.87404-1.08782-2.14329-3.25268-2.14329-3.27424-.0631-.61436-1.01407-.61753-1.07704.00004,0,.02152-.26926,2.18637-2.14336,3.27419-.29271.17319-.35507.61038-.10767.85084.58157.58164,2.12172,2.40184,2.25103,3.73735Z"/></svg>
