<?xml version="1.0" encoding="UTF-8"?>
<!DOCTYPE svg PUBLIC "-//W3C//DTD SVG 1.0//EN" "http://www.w3.org/TR/2001/REC-SVG-20010904/DTD/svg10.dtd">
<!-- Creator: CorelDRAW 2021.5 -->
<svg xmlns="http://www.w3.org/2000/svg" xml:space="preserve" width="191px" height="128px" version="1.0" style="shape-rendering:geometricPrecision; text-rendering:geometricPrecision; image-rendering:optimizeQuality; fill-rule:evenodd; clip-rule:evenodd"
viewBox="0 0 14.321 9.622"
 xmlns:xlink="http://www.w3.org/1999/xlink"
 xmlns:xodm="http://www.corel.com/coreldraw/odm/2003">
 <defs>
  <style type="text/css">
   <![CDATA[
    .fil0 {fill:#FFFFFF}
   ]]>
  </style>
 </defs>
 <g id="Layer_x0020_1">
  <metadata id="CorelCorpID_0Corel-Layer"/>
  <path class="fil0" d="M9.81 3.213c-0.855,-1.183 -2.073,-1.879 -3.372,-2.058 -1.103,-0.152 -2.374,0.057 -3.669,0.637 -0.036,0.017 -0.054,0.057 -0.042,0.095 0.012,0.037 0.05,0.06 0.089,0.052 0.83,-0.166 1.607,-0.212 2.293,-0.14 0.871,0.09 1.634,0.375 2.204,0.848 0.194,-0.018 0.132,-0.036 0.592,-0.017 0.462,0.02 1.379,0.246 1.905,0.583zm-2.142 -0.196c1.588,0 2.895,1.048 2.949,2.437l-0.039 0.074c-0.516,0.991 -2.211,1.162 -3.16,1.095 -0.581,-0.041 -1.624,-0.299 -2.133,-0.612l-0.21 -0.13 -0.134 -0.123c-0.136,-0.125 -0.238,-0.295 -0.305,-0.478 0.152,-1.307 1.444,-2.263 3.032,-2.263l0 0zm2.104 4.329l-0.015 0.013 -0.042 -0.012 0.057 -0.001 0 0zm1.267 -1.956c0.907,-1.106 0.867,-2.307 0.258,-3.346 -0.523,-0.891 -1.406,-1.641 -2.587,-2.04 -0.037,-0.012 -0.076,0.003 -0.094,0.037 -0.018,0.034 -0.009,0.075 0.021,0.098 0.546,0.412 0.973,0.899 1.266,1.41 0.369,0.643 0.505,1.317 0.298,1.952 0.499,0.423 0.84,1.184 0.86,1.53 0.02,0.347 -0.002,0.243 -0.022,0.359l0 0zm-2.26 1.599c2.195,0.166 3.926,-0.228 4.827,-1.05 0.787,-0.721 0.911,-1.798 0.354,-2.978 -0.015,-0.033 -0.051,-0.051 -0.087,-0.042 -0.036,0.007 -0.061,0.038 -0.061,0.075 0.001,0.68 -0.21,1.283 -0.63,1.74 -0.503,0.55 -1.295,0.905 -2.269,1.028 -0.319,0.613 -1.105,1.064 -2.134,1.227zm-3.604 -0.607c0.876,1.193 2.516,1.976 4.373,2.269 1.67,0.263 3.389,0.119 4.728,-0.494 0.036,-0.016 0.053,-0.056 0.042,-0.093 -0.012,-0.038 -0.049,-0.061 -0.088,-0.054 -1.011,0.171 -2.073,0.185 -3.077,0.054 -1.176,-0.154 -2.232,-0.497 -3.003,-1.013 -0.229,0.011 -0.134,0.029 -0.704,-0.011 -0.57,-0.04 -1.697,-0.305 -2.271,-0.658zm-0.74 -2.093c-1.354,1.018 -1.883,2.145 -1.495,3.118 0.359,0.9 1.544,1.693 3.399,2.212 0.038,0.011 0.077,-0.008 0.093,-0.044 0.015,-0.037 0,-0.079 -0.034,-0.098 -0.831,-0.464 -1.412,-0.975 -1.711,-1.5 -0.358,-0.631 -0.322,-1.288 0.093,-1.886 -0.446,-0.411 -0.579,-1.125 -0.489,-1.452 0.089,-0.325 0.083,-0.236 0.144,-0.35l0 0zm2.397 -1.568c-1.792,-0.099 -3.411,0.353 -4.659,1.064 -1.195,0.68 -2.044,1.584 -2.172,2.631 -0.005,0.036 0.015,0.069 0.049,0.082 0.033,0.012 0.07,0.001 0.091,-0.028 0.442,-0.624 1.079,-1.164 1.816,-1.597 0.808,-0.474 1.736,-0.818 2.719,-0.936 0.469,-0.584 1.264,-1.029 2.156,-1.216z"/>
 </g>
</svg>
