<svg xmlns="http://www.w3.org/2000/svg" xmlns:xlink="http://www.w3.org/1999/xlink" version="1.1" id="Layer_1" x="0px" y="0px" viewBox="0 0 491.5 491.5" style="enable-background:new 0 0 491.5 491.5;" xml:space="preserve">
<g>
	<path d="M337,306.2c-30.2,4.3-60.9,6.3-91.3,6.3c-30.4,0-61.1-2-91.3-6.3C191.5,377.4,300,377.4,337,306.2z" fill="#ffffff"/>
	<path d="M363.2,227.4c-6.6-3.1-11.1-8.5-12.9-15.6c-12.1-47.7-55.2-81.2-104.5-81.2c-49.3,0-92.4,33.5-104.5,81.2   c-1.8,7.1-6.3,12.5-12.9,15.6c-3.4,1.6-12.5,6.4-12.5,11h0c0,6.5,12.9,11.7,17.8,13.5c29.5,10.7,81,14.9,112.2,14.9   c8.6,0,17.5-0.5,26.1-1c12-0.8,103.9-7.6,103.9-27.3C375.7,233.8,366.6,229,363.2,227.4z" fill="#ffffff"/>
	<path d="M446.2,234.3c-8.9-6.3-21-10.9-31.4-14.2c-7.8-2.5-13.5-8.4-15.8-16.3c-19.5-68.4-82.2-115.6-153.4-115.6   S111.9,135.3,92.4,203.7c-2.3,7.9-7.9,13.8-15.8,16.3c-10.4,3.3-22.4,7.9-31.4,14.2c-4.1,2.9-9.8,7.8-9.8,13.4   c0,6.9,8.5,13.5,13.6,16.9c12.1,8.1,27.9,13.9,41.8,18.2c18.3,5.6,37.3,9.6,56.2,12.6c32.5,5.2,65.8,7.5,98.7,7.5   c32.9,0,66.2-2.3,98.7-7.5c18.9-3,37.9-7,56.2-12.6c13.9-4.3,29.7-10.1,41.8-18.2c5.1-3.4,13.6-10,13.6-16.9   C456,242.1,450.4,237.2,446.2,234.3z M340.4,143.6c1.9-1.8,5-1.7,6.8,0.2h0c15.7,16.8,26.9,37.1,32.7,59.3c0.7,2.6-0.9,5.2-3.4,5.8   c-2.6,0.7-5.2-0.9-5.8-3.4c-5.4-20.7-15.9-39.6-30.5-55.2C338.3,148.4,338.4,145.4,340.4,143.6z M148.3,139.8   c26-25.6,61-40,97.4-40c2.7,0,4.8,2.1,4.8,4.8s-2.1,4.8-4.8,4.8c-34,0-66.5,13.3-90.7,37.2c-1.9,1.9-4.9,1.8-6.8-0.1   C146.4,144.7,146.4,141.6,148.3,139.8z M272.4,275.3c-8.8,0.6-17.8,1.1-26.7,1.1c-32.4,0-84.8-4.3-115.5-15.5   c-9.7-3.5-24.1-10.3-24.1-22.5c0-9.7,10.3-16.1,18.1-19.7c4-1.9,6.6-5,7.7-9.3c13.2-52,60.1-88.5,113.8-88.5   c53.7,0,100.6,36.5,113.8,88.5c1.1,4.3,3.7,7.4,7.7,9.3c7.7,3.6,18.1,10,18.1,19.7C385.3,268.5,292.3,274,272.4,275.3z" fill="#ffffff"/>
	<path d="M143,304.5c-15.6-2.6-31.2-5.8-46.4-10c20.6,64.5,80.8,108.9,149.2,108.9S374.4,358.9,395,294.4   c-15.2,4.3-30.9,7.5-46.4,10C310.2,390.8,181.3,390.8,143,304.5z M191,374.3c-1.2,2.4-4,3.4-6.4,2.2c-18.8-9.2-35-22.6-47.3-39.5   c-1.6-2.1-1.1-5.1,1-6.7s5.1-1.1,6.7,1c11.4,15.6,26.4,28,43.7,36.5C191.2,369,192.2,371.9,191,374.3z M355.3,326.9   c2.2,1.5,2.8,4.5,1.3,6.6v0c-11.9,17.5-27.6,31.4-46.3,41.2c-2.3,1.2-5.2,0.3-6.4-2c-1.2-2.3-0.3-5.2,2-6.4   c17.2-9,31.9-22,42.8-38.1C350.2,326,353.2,325.4,355.3,326.9z" fill="#ffffff"/>
</g>
</svg>
